<svg width="13" height="17" viewBox="0 0 13 17" fill="none" xmlns="http://www.w3.org/2000/svg">
<path fill-rule="evenodd" clip-rule="evenodd" d="M12.7245 15.1957C12.7245 15.6602 12.3483 16.0372 11.883 16.0372C11.4176 16.0372 11.0414 15.6602 11.0414 15.1957C11.0414 12.8755 9.15382 10.9879 6.83368 10.9879C4.51355 10.9879 2.62596 12.8755 2.62596 15.1957C2.62596 15.6602 2.24979 16.0372 1.78442 16.0372C1.31904 16.0372 0.942871 15.6602 0.942871 15.1957C0.942871 11.9473 3.58616 9.30485 6.83368 9.30485C10.0812 9.30485 12.7245 11.9473 12.7245 15.1957ZM6.83368 2.57249C7.76191 2.57249 8.51677 3.32736 8.51677 4.25558C8.51677 5.18381 7.76191 5.93867 6.83368 5.93867C5.90546 5.93867 5.15059 5.18381 5.15059 4.25558C5.15059 3.32736 5.90546 2.57249 6.83368 2.57249ZM6.83368 7.62176C8.69013 7.62176 10.1999 6.11203 10.1999 4.25558C10.1999 2.39914 8.69013 0.889404 6.83368 0.889404C4.97724 0.889404 3.4675 2.39914 3.4675 4.25558C3.4675 6.11203 4.97724 7.62176 6.83368 7.62176Z" fill="#0A2C5B"/>
</svg>
